<svg xmlns="http://www.w3.org/2000/svg" xmlns:xlink="http://www.w3.org/1999/xlink" width="1080" zoomAndPan="magnify" viewBox="0 0 810 809.999993" height="1080" preserveAspectRatio="xMidYMid meet" version="1.0"><defs><g/></defs><g fill="#d27272" fill-opacity="1"><g transform="translate(146.615522, 561.847992)"><g><path d="M 206.53125 0 L 83.140625 0 C 63.472656 0 49.257812 -4.019531 40.5 -12.0625 C 31.738281 -20.113281 27.359375 -31.289062 27.359375 -45.59375 C 27.359375 -52.75 27.894531 -64.816406 28.96875 -81.796875 C 30.039062 -98.785156 31.46875 -118.632812 33.25 -141.34375 C 35.039062 -164.0625 36.832031 -187.578125 38.625 -211.890625 C 40.414062 -236.210938 42.203125 -259.457031 43.984375 -281.625 C 45.773438 -303.800781 47.207031 -323.023438 48.28125 -339.296875 C 49.351562 -355.566406 49.890625 -366.742188 49.890625 -372.828125 C 49.890625 -378.191406 52.75 -380.875 58.46875 -380.875 L 247.296875 -380.875 C 249.441406 -380.875 251.40625 -380.335938 253.1875 -379.265625 C 254.976562 -378.191406 255.875 -376.222656 255.875 -373.359375 L 253.734375 -341.703125 C 253.015625 -330.984375 250.0625 -322.3125 244.875 -315.6875 C 239.695312 -309.070312 229.0625 -305.765625 212.96875 -305.765625 L 138.9375 -305.765625 L 133.578125 -230.125 L 209.75 -230.125 C 211.894531 -230.125 213.859375 -229.585938 215.640625 -228.515625 C 217.429688 -227.441406 218.328125 -225.476562 218.328125 -222.625 L 216.1875 -190.96875 C 215.46875 -180.238281 212.515625 -171.566406 207.328125 -164.953125 C 202.148438 -158.335938 191.515625 -155.03125 175.421875 -155.03125 L 128.75 -155.03125 L 122.84375 -75.09375 L 240.859375 -75.09375 C 243.003906 -75.09375 244.96875 -74.46875 246.75 -73.21875 C 248.539062 -71.96875 249.4375 -70.09375 249.4375 -67.59375 L 247.296875 -35.9375 C 246.578125 -25.207031 243.625 -16.535156 238.4375 -9.921875 C 233.257812 -3.304688 222.625 0 206.53125 0 Z M 206.53125 0 "/></g></g></g><g fill="#d27272" fill-opacity="1"><g transform="translate(305.841677, 653.085362)"><g><path d="M 306.28125 -165.578125 C 304.925781 -153.390625 302.804688 -139.757812 299.921875 -124.6875 C 297.046875 -109.625 292.472656 -94.472656 286.203125 -79.234375 C 279.941406 -63.992188 271.222656 -50.023438 260.046875 -37.328125 C 248.878906 -24.628906 234.488281 -14.382812 216.875 -6.59375 C 199.269531 1.1875 177.429688 5.078125 151.359375 5.078125 C 121.898438 5.078125 98.195312 -0.335938 80.25 -11.171875 C 62.300781 -22.003906 49.265625 -36.5625 41.140625 -54.84375 C 33.015625 -73.132812 28.953125 -93.285156 28.953125 -115.296875 C 28.953125 -124.441406 29.457031 -136.96875 30.46875 -152.875 C 31.488281 -168.789062 32.757812 -186.226562 34.28125 -205.1875 C 35.8125 -224.15625 37.335938 -242.953125 38.859375 -261.578125 C 40.378906 -280.203125 41.816406 -296.960938 43.171875 -311.859375 C 44.523438 -326.765625 45.375 -337.941406 45.71875 -345.390625 C 46.050781 -351.816406 46.894531 -355.960938 48.25 -357.828125 C 49.601562 -359.691406 51.632812 -360.625 54.34375 -360.625 L 82.28125 -360.625 C 103.28125 -360.625 117.25 -356.222656 124.1875 -347.421875 C 131.125 -338.617188 134.59375 -325.582031 134.59375 -308.3125 C 134.59375 -307.289062 134.335938 -302.882812 133.828125 -295.09375 C 133.328125 -287.3125 132.648438 -277.492188 131.796875 -265.640625 C 130.953125 -253.785156 130.109375 -241.171875 129.265625 -227.796875 C 128.421875 -214.421875 127.570312 -201.550781 126.71875 -189.1875 C 125.875 -176.832031 125.195312 -166.164062 124.6875 -157.1875 C 124.1875 -148.21875 123.9375 -142.210938 123.9375 -139.171875 C 123.9375 -133.410156 124.1875 -126.890625 124.6875 -119.609375 C 125.195312 -112.328125 126.550781 -105.21875 128.75 -98.28125 C 130.957031 -91.34375 134.515625 -85.585938 139.421875 -81.015625 C 144.335938 -76.441406 151.363281 -74.15625 160.5 -74.15625 C 172.351562 -74.15625 181.832031 -77.960938 188.9375 -85.578125 C 196.050781 -93.203125 201.554688 -102.597656 205.453125 -113.765625 C 209.347656 -124.941406 212.140625 -136.03125 213.828125 -147.03125 C 215.523438 -158.039062 216.539062 -167.101562 216.875 -174.21875 C 218.238281 -191.488281 219.679688 -209.179688 221.203125 -227.296875 C 222.722656 -245.410156 224.078125 -262.59375 225.265625 -278.84375 C 226.453125 -295.101562 227.382812 -309.070312 228.0625 -320.75 C 228.738281 -332.4375 229.078125 -340.476562 229.078125 -344.875 C 229.078125 -351.644531 229.582031 -355.960938 230.59375 -357.828125 C 231.613281 -359.691406 233.816406 -360.625 237.203125 -360.625 L 265.140625 -360.625 C 280.367188 -360.625 291.539062 -358.84375 298.65625 -355.28125 C 305.769531 -351.726562 310.253906 -347.242188 312.109375 -341.828125 C 313.972656 -336.410156 314.90625 -330.484375 314.90625 -324.046875 C 314.90625 -319.648438 314.734375 -311.441406 314.390625 -299.421875 C 314.054688 -287.398438 313.46875 -273.429688 312.625 -257.515625 C 311.78125 -241.597656 310.847656 -225.515625 309.828125 -209.265625 C 308.816406 -193.015625 307.632812 -178.453125 306.28125 -165.578125 Z M 306.28125 -165.578125 "/></g></g></g></svg>