<svg xmlns="http://www.w3.org/2000/svg" xmlns:xlink="http://www.w3.org/1999/xlink" width="1080" zoomAndPan="magnify" viewBox="0 0 810 809.999993" height="1080" preserveAspectRatio="xMidYMid meet" version="1.0"><defs><g/></defs><g fill="#ffffff" fill-opacity="1"><g transform="translate(121.978232, 543.776863)"><g><path d="M 36.484375 0 L 36.484375 -375.515625 L 281.640625 -375.515625 L 281.640625 -320.265625 L 105.140625 -320.265625 L 105.140625 -217.265625 L 265.546875 -217.265625 L 265.546875 -163.625 L 105.140625 -163.625 L 105.140625 -55.25 L 281.640625 -55.25 L 281.640625 0 Z M 36.484375 0 "/></g></g></g><g fill="#ffffff" fill-opacity="1"><g transform="translate(311.005447, 639.121613)"><g><path d="M 171.6875 6.09375 C 145.613281 6.09375 122.078125 0.929688 101.078125 -9.390625 C 80.085938 -19.722656 63.410156 -35.382812 51.046875 -56.375 C 38.691406 -77.375 32.515625 -103.957031 32.515625 -136.125 L 32.515625 -355.5625 L 97.53125 -355.5625 L 97.53125 -135.625 C 97.53125 -107.851562 104.21875 -87.191406 117.59375 -73.640625 C 130.96875 -60.097656 149.503906 -53.328125 173.203125 -53.328125 C 196.566406 -53.328125 215.019531 -60.097656 228.5625 -73.640625 C 242.113281 -87.191406 248.890625 -107.851562 248.890625 -135.625 L 248.890625 -355.5625 L 313.90625 -355.5625 L 313.90625 -136.125 C 313.90625 -103.957031 307.46875 -77.375 294.59375 -56.375 C 281.726562 -35.382812 264.546875 -19.722656 243.046875 -9.390625 C 221.546875 0.929688 197.757812 6.09375 171.6875 6.09375 Z M 171.6875 6.09375 "/></g></g></g></svg>